<?xml version="1.0" encoding="UTF-8" standalone="no"?>
<svg
   xmlns:dc="http://purl.org/dc/elements/1.1/"
   xmlns:cc="http://creativecommons.org/ns#"
   xmlns:rdf="http://www.w3.org/1999/02/22-rdf-syntax-ns#"
   xmlns:svg="http://www.w3.org/2000/svg"
   xmlns="http://www.w3.org/2000/svg"
   xmlns:sodipodi="http://sodipodi.sourceforge.net/DTD/sodipodi-0.dtd"
   xmlns:inkscape="http://www.inkscape.org/namespaces/inkscape"
   viewBox="0 0 23.999998 17.999842"
   height="17.999842"
   width="23.999998"
   xml:space="preserve"
   id="svg2"
   version="1.1"
   sodipodi:docname="youtube-play-black-seeklogo.com.svg"
   inkscape:version="0.92.3 (2405546, 2018-03-11)"><sodipodi:namedview
     pagecolor="#ffffff"
     bordercolor="#666666"
     borderopacity="1"
     objecttolerance="10"
     gridtolerance="10"
     guidetolerance="10"
     inkscape:pageopacity="0"
     inkscape:pageshadow="2"
     inkscape:window-width="1680"
     inkscape:window-height="995"
     id="namedview12"
     showgrid="false"
     fit-margin-top="0"
     fit-margin-left="0"
     fit-margin-right="0"
     fit-margin-bottom="0"
     inkscape:zoom="6.480668"
     inkscape:cx="37.621796"
     inkscape:cy="10.618895"
     inkscape:window-x="0"
     inkscape:window-y="0"
     inkscape:window-maximized="1"
     inkscape:current-layer="svg2" /><metadata
     id="metadata8"><rdf:RDF><cc:Work
         rdf:about=""><dc:format>image/svg+xml</dc:format><dc:type
           rdf:resource="http://purl.org/dc/dcmitype/StillImage" /><dc:title></dc:title></cc:Work></rdf:RDF></metadata><defs
     id="defs6"><clipPath
       id="clipPath20"
       clipPathUnits="userSpaceOnUse"><path
         id="path18"
         d="M 0,2 H 4100 V 3082 H 0 Z"
         inkscape:connector-curvature="0" /></clipPath></defs><g
     transform="matrix(0.05859346,0,0,-0.05859346,0,18.058504)"
     id="g10"><g
       transform="scale(0.1)"
       id="g12"><g
         id="g14"><g
           clip-path="url(#clipPath20)"
           id="g16"><path
             id="path22"
             style="fill:#000000;fill-opacity:1;fill-rule:nonzero;stroke:none"
             d="M 3924.77,2953.56 C 3350.23,3036.18 2715.43,3082 2048.01,3082 1380.59,3082 745.781,3036.18 171.25,2953.56 61.0898,2522.66 0,2046.57 0,1545.98 0,1045.44 61.0898,569.34 171.25,138.449 745.781,55.8281 1380.59,10.0117 2048.01,10.0117 c 667.42,0 1302.22,45.8164 1876.76,128.4373 110.11,430.891 171.25,906.991 171.25,1407.531 0,500.59 -61.14,976.68 -171.25,1407.58 z M 1536.02,778.02 v 1535.97 l 1280,-768.01 z"
             inkscape:connector-curvature="0" /></g></g></g></g></svg>